<svg xmlns="http://www.w3.org/2000/svg"><style>:root svg:not(:target){display:none}</style><svg viewBox="0 0 24 24" fill="none" id="arrow"><path d="m9 19 7-7-7-7" stroke="#343A3F" stroke-linecap="round" stroke-linejoin="round"></path></svg><svg viewBox="0 0 24 24" fill="none" id="chest-sparkle"><g clip-path="url(#chest-sparkle_0)" fill="#4888FF" fill-opacity=".5"><path d="M19.56 5.38c1.77 2.23 1.54 5.38 1.54 7.47h2.57c0-2.18.05-2.73-.16-3.65-.46-2.06-1.86-3.55-3.95-3.82Zm-16.32 7.47c0-2.21-.03-2.85.13-3.92a7.56 7.56 0 0 1 1.4-3.55c-1.87.22-3.44 1.57-3.94 3.82-.21.92-.17 1.47-.17 3.65h2.58Zm1.56-3.7c-.15.95-.12 1.5-.12 3.7h1.94v-.75a3.01 3.01 0 0 1 3.01-3.01h5.07a3.01 3.01 0 0 1 3.01 3.01v.75h1.94c0-2.2.03-2.75-.11-3.7-.25-1.7-1.14-3.8-2.8-3.8-9.86 0-9.26-.02-9.52.03-1.19.26-2.12 1.7-2.43 3.77Zm12.74 6.61h4.19c.4 0 .72.32.72.72v5.21c0 .4-.33.73-.72.73h-19.22a.72.72 0 0 1-.72-.73v-5.21c0-.4.32-.72.72-.72h4.29c-.2-.57-.18-.96-.18-1.47h-5.96v8.9c0 .4.32.73.72.73h21.57c.4 0 .72-.32.72-.72v-8.9h-5.96c0 .5.03.89-.17 1.46Z"></path><path d="M3.23 17.2v3.77h17.77v-3.77h-4.5c-.37.3-.83.51-1.32.6 0 1.5-.92 2.24-1.96 2.24h-2.2c-.97 0-1.95-.68-1.95-2.25-.46-.1-.88-.3-1.24-.6h-4.6Z"></path><path d="M14.7 10.53h-5.07c-.86 0-1.56.7-1.56 1.57v2.63c0 .89.7 1.7 1.72 1.7.4 0 .72.31.72.71v.94c0 .29.23.52.52.52h2.19c.28 0 .51-.23.51-.52v-.94c0-.3.19-.55.45-.66.32-.13 1.1.1 1.74-.72.4-.52.35-.98.35-1.47v-2.19c0-.86-.7-1.57-1.57-1.57Zm-3.75 2.79a.72.72 0 0 1-1.44 0v-.85a.72.72 0 0 1 1.44 0v.85Zm1.94 2.24a.72.72 0 0 1-1.44 0c0-.86-.05-1.02.16-1.27a.72.72 0 0 1 1.28.46v.81Zm1.8-1.99a.72.72 0 0 1-1.4-.25v-.85a.72.72 0 0 1 1.45 0c0 .92.01.95-.05 1.1Zm8.59-11.21h-.44v-.43a.72.72 0 1 0-1.44 0v.43h-.44a.72.72 0 0 0 0 1.45h.44v.44a.72.72 0 0 0 1.44 0v-.44h.44a.72.72 0 0 0 0-1.45Zm-6.68.29h.44v.44a.72.72 0 1 0 1.44 0v-.44h.44a.72.72 0 0 0 0-1.44h-.44v-.44a.72.72 0 0 0-1.44 0v.44h-.44a.72.72 0 1 0 0 1.44Zm-11.52 0h.44v.44a.72.72 0 0 0 1.44 0v-.44h.44a.72.72 0 0 0 0-1.44h-.44v-.44a.72.72 0 0 0-1.44 0v.44h-.44a.72.72 0 0 0 0 1.44Zm-3.92 1.15v.45a.72.72 0 0 0 1.44 0v-.44h.44a.72.72 0 0 0 0-1.45h-.44v-.43a.72.72 0 0 0-1.44 0v.43h-.44a.72.72 0 1 0 0 1.45h.44Z"></path></g><defs><clipPath id="chest-sparkle_0"><path fill="#fff" d="M0 0h24v24h-24z"></path></clipPath></defs></svg><svg viewBox="0 0 20 20" fill="none" id="chest"><g clip-path="url(#chest_0)" fill="#343A3F"><path d="M.59 8.5h-.59v5.14a4.5 4.5 0 0 1 2.1.67v-5.82h-1.51Zm15.71-6.38h-12.6a3.7 3.7 0 0 0-3.7 3.7v1.5h7.63v-1.08h4.74v1.08h7.63v-1.5a3.7 3.7 0 0 0-3.7-3.7Zm-3.93 6.38v.64c0 .22-.03.42-.08.62h4.43v-1.27h-4.35Zm7.04 0h-1.52v5.81a4.5 4.5 0 0 1 2.11-.67v-5.15h-.59Zm-7.85 2.43a2.36 2.36 0 0 1-3.12 0h-5.16v4.43c.55.7.9 1.57.96 2.52h11.52c.06-.95.4-1.81.96-2.52v-4.43h-5.16Zm5.37 6.95h3.07v-3.07a3.37 3.37 0 0 0-3.07 3.07Zm-16.93-3.07v3.07h3.07a3.37 3.37 0 0 0-3.07-3.07Zm7.63-5.67v-.65h-4.35v1.27h4.43a2.5 2.5 0 0 1-.08-.62Zm1.17-1.74v1.74a1.2 1.2 0 0 0 2.4 0v-1.73h-2.4Z"></path></g><defs><clipPath id="chest_0"><path fill="#fff" d="M0 0h20v20h-20z"></path></clipPath></defs></svg><svg viewBox="0 0 16 16" fill="none" id="clock"><path d="M7.5 2a5.5 5.5 0 1 0 .01 11.01 5.5 5.5 0 0 0-.01-11.01Zm2.62 8.34a.46.46 0 0 1-.65 0l-2.3-2.29a.46.46 0 0 1-.13-.32v-2.98a.46.46 0 1 1 .92 0v2.79l2.16 2.16a.46.46 0 0 1 0 .64Z" fill="#343A3F" opacity=".3"></path></svg><svg viewBox="0 0 24 24" fill="none" id="computer"><g clip-path="url(#computer_0)"><path fill-rule="evenodd" clip-rule="evenodd" d="m14.83 0-13.9 2.32c-.2.04-.35.2-.35.41v18.54c0 .2.15.37.35.4l13.9 2.32a.4.4 0 0 0 .13 0l8.1-1.15c.2-.03.36-.2.36-.41v-20.86a.4.4 0 0 0-.35-.4l-8.11-1.17h-.13Zm.48 17.98v5.13l1.49-.21v-6.25l-1.49 1.33Zm-13.9-2.02 13.07 2.18v4.96l-13.07-2.18v-4.96Zm19.11-14.32v11.52a.4.4 0 0 1-.13.3l-2.76 2.46v6.86l4.96-.71v-20.14l-2.07-.3Zm-18.15 13.65 12.11 2.01v-2.36l-9.36-.96-2.75 1.3Zm17.33-13.77-4.39-.63v15.98l4.39-3.9v-11.45Zm-18.3 3.22v10.08l3.23-1.52v-9.1l-3.22.54Zm4.06-.68v9.13l9.02.92v-11.55l-9.02 1.5Zm10.76-1.33v1.16a.41.41 0 0 0 .83 0v-1.16a.41.41 0 0 0-.83 0Zm-1.74-1.01-13.07 2.18v-.82l13.07-2.18v.82Z" fill="#4888FF" fill-opacity=".5"></path></g><defs><clipPath id="computer_0"><path fill="#fff" d="M0 0h24v24h-24z"></path></clipPath></defs></svg><svg viewBox="0 0 24 24" fill="none" id="cross"><path d="m19 5-14 14m0-14 14 14" stroke="#343A3F" stroke-linecap="round" stroke-linejoin="round"></path></svg><svg viewBox="0 0 16 16" fill="none" id="earth"><path d="M8 1a7 7 0 1 0 0 14 7 7 0 0 0 0-14Zm-.8 1.65c-.78.5-1.32.88-1.44 1.31-.21.75 1.12 1.3 1.49 1.62.67.6.36 2.07-.34 2.72-.7.66-.96 1.32-.88 1.82.1.66.84 1.7 1.23 2.34.4.64-.02.79-.58.46-.4-.24-2.3-.7-2.88-1.12-.57-.42-.75-1.85-.57-2.45.18-.6.4-2.18-.51-2.7a1.7 1.7 0 0 1-.54-.48 6.11 6.11 0 0 1 6.07-4.27c-.4.3-.8.57-1.06.75Zm5.98 6.49a9.57 9.57 0 0 1-1.86-.3c-.71-.4-.48-.93-.18-1.7.3-.79-1.2-1.47-1.2-2.4 0-.91.6-1.52 1.29-1.92a6.1 6.1 0 0 1 2.36 7.63c-.03-.66.03-1.27-.41-1.31Z" fill="#343A3F" fill-opacity=".5"></path></svg><svg viewBox="0 0 24 24" fill="none" id="fire"><path d="M15.48 18.61c0-1.28-.81-2.03-2.36-3.34-.35-.3-.73-.62-1.12-.98-.44.41-.87.77-1.25 1.1-1.55 1.31-2.23 1.95-2.23 3.22a3.48 3.48 0 1 0 6.96 0Z" fill="#4888FF" fill-opacity=".5"></path><path d="M16.4 4.04a59.73 59.73 0 0 1-3.69-3.33l-.71-.71-.7.71c-2.25 2.26-3.32 5.74-3.78 7.82a6.04 6.04 0 0 1-.78-1.78l-.43-1.64-1.23 1.16c-2.16 2.02-3.6 4.04-3.6 7.26a10.42 10.42 0 0 0 9.52 10.47 5.5 5.5 0 0 1-4.48-5.39c0-2.25 1.35-3.4 2.92-4.74.56-.48 1.2-1.02 1.85-1.67l.71-.7.7.7c.58.58 1.16 1.07 1.72 1.54 1.57 1.34 3.06 2.6 3.06 4.87a5.49 5.49 0 0 1-4.45 5.38 10.51 10.51 0 0 0 9.49-10.46c0-4.3-2.83-6.71-6.11-9.5Z" fill="#4888FF" fill-opacity=".5"></path></svg><svg viewBox="0 0 24 24" fill="none" id="group"><path d="M8.74 9.18a3.6 3.6 0 0 0 4.74 1.77c2.3-.93 2.82-4.3.96-5.88-2.84-2.65-7.31.57-5.7 4.11Zm7.16 3.57a4.68 4.68 0 0 0-2.48-.7c-.1-.01-3.1-.02-3.1 0a4.72 4.72 0 0 0-4.46 4.71c.04.42-.07 1.68.06 2.07a2.55 2.55 0 0 0 2.48 1.96h7.2a2.54 2.54 0 0 0 2.54-2.54v-1.49a4.71 4.71 0 0 0-2.23-4Z" fill="#4888FF" fill-opacity=".5"></path><path d="M3.18 18.83h1.64c-.1-.38-.03-1.77-.05-2.18a5.83 5.83 0 0 1 4.15-5.46c-.22-.17-.4-.4-.59-.6a3.62 3.62 0 0 0-.48-.03h-2.65a4.45 4.45 0 0 0-4.45 4.45v1.39a2.43 2.43 0 0 0 2.43 2.43Zm3.35-8.81c.45 0 .88-.09 1.28-.26a4.66 4.66 0 0 1 1.1-5.57c-2.03-2.1-5.86-.55-5.8 2.43 0 1.87 1.54 3.4 3.42 3.4Zm12.27.54h-2.65c-.52-.1-.71.35-1.07.63a5.79 5.79 0 0 1 4.14 5.46c0 .42.05 1.79-.04 2.18h1.64a2.43 2.43 0 0 0 2.43-2.43v-1.39a4.46 4.46 0 0 0-4.45-4.45Zm-2.42-4.49a4.62 4.62 0 0 1-.2 3.7c.41.16.85.25 1.3.25 4.5-.15 4.5-6.67 0-6.8-.9 0-1.76.34-2.4.97a4.6 4.6 0 0 1 1.3 1.88Z" fill="#4888FF" fill-opacity=".5"></path></svg><svg viewBox="0 0 20 20" fill="none" id="heart"><path d="M14.2 2.33a4.89 4.89 0 0 0-4.2 2.52 4.89 4.89 0 0 0-4.2-2.52 5.2 5.2 0 0 0-4.96 5.39c0 3.47 3.65 7.26 6.72 9.83a3.8 3.8 0 0 0 4.88 0c3.07-2.57 6.72-6.36 6.72-9.83a5.2 5.2 0 0 0-4.96-5.39Z" fill="#343A3F"></path></svg><svg viewBox="0 0 20 20" fill="none" id="hunter"><g clip-path="url(#hunter_0)" fill="#343A3F"><path d="M7.8 9.31h-1.38a.35.35 0 0 0-.34.34v.35h2.07v-.35a.35.35 0 0 0-.35-.34Zm3.8-3.11h-.7v2.42c0 1.09-.46 2.07-1.2 2.76h1.9v-5.17Zm-6.36 9.11 1.25-.83-1.5-1-.25.07.5 1.76Zm5.28-3.24h-1v.77l.54.15.46-.92Z"></path><path d="M10.22 6.2h-6.21v2.42a3.1 3.1 0 0 0 6.2 0v-2.41Zm-5.18 1.04a.35.35 0 1 1 .7 0 .35.35 0 0 1-.7 0Zm3.8 3.45h-3.45v-1.04c0-.57.46-1.03 1.03-1.03h1.38c.57 0 1.04.46 1.04 1.04v1.03Zm0-3.1a.35.35 0 1 1 0-.7.35.35 0 0 1 0 .7Zm4.1-7.25h-.31c-.83 0-1.53.6-1.69 1.38h.31c.83 0 1.53-.59 1.69-1.38Zm-.66 3.46h-.32l-10.02 1v.72h10.34v-1.73Zm-3.1-1.04c0-.57.47-1.04 1.04-1.04h.02v-.01a3.45 3.45 0 0 0-6.18.46 8.7 8.7 0 0 1-.99 1.82l6.3-.63a1.04 1.04 0 0 1-.19-.6Zm1.38 0a.34.34 0 1 1-.69 0 .34.34 0 0 1 .7 0Zm-2.83 11.72 1.25.83.5-1.76-.24-.07-1.5 1Zm3.87-2.41h-.3l-.57 1.12.54.15.08-.3 2.04.5-.12.5c.3.19.54.44.72.73l1-1.97-2.73-1.24a.69.69 0 0 1-.66.5Zm1.48 2.68a12 12 0 0 1-1.48 3.32v1.93h2.06v-3.96c0-.5-.21-.97-.58-1.29Zm-2.18 5.25v-.98c-.26.34-.55.67-.85.98h.86Z"></path><path d="m12.56 14.04-.72-.18-.04.15a12.03 12.03 0 0 1-3.57 5.79l-.22.2h1.03a11.3 11.3 0 0 0 3.45-5.7l.07-.26Zm-10.78.41c-.73.23-1.22.89-1.22 1.65v3.9h2.07v-2.63c0-1.03-.17-2.05-.5-3.02l-.35.1Z"></path><path d="m11.08 14-.93-.26-.77 2.67-1.92-1.28v4.44l.31-.28a11.33 11.33 0 0 0 3.3-5.29Zm-7-.24-1.3.39a9.8 9.8 0 0 1 .54 3.22v2.63h3.45v-4.87l-1.93 1.28-.76-2.65Zm-.76-5.14v-2.41h-.7v5.17h1.9a3.78 3.78 0 0 1-1.2-2.76Zm5.52 3.38a3.76 3.76 0 0 1-3.45 0v.92l1.72 1.15 1.73-1.15v-.93Zm8.96-4.82-.73-1.48-1.26 2.17.38 1.42-1.08 1.86-2.11-.97 1.24-2.15 1.4-.38 1.26-2.17-1.65.1-.73-1.48-1.26 2.17.38 1.41-1.27 2.2-.09-.03v.96l3.3 1.5.38-.77-.22-.1 1.05-1.8 1.41-.39 1.26-2.17-1.66.1Z"></path></g><defs><clipPath id="hunter_0"><path fill="#fff" d="M0 0h20v20h-20z"></path></clipPath></defs></svg><svg viewBox="0 0 24 24" fill="none" id="laptop"><path d="M21.32 16.66h-.01v-12.29h-18.64v12.3h.01l-2.68 2.1v.86h24v-.86l-2.68-2.1Zm-16.95-11.05 15.47.02-.12 9.8-15.38.07.03-9.89Zm6.24 13.16.38-.54h2.44l.45.54h-3.27Zm-8.04-1.03.89-.62h17.23l1.22.69-19.34-.07Z" fill="#4888FF" fill-opacity=".5"></path></svg><svg viewBox="0 0 24 24" fill="none" id="lightning"><path d="M20.93 7.96a.7.7 0 0 0-.65-.43h-4.88l3.25-6.51a.7.7 0 0 0-.62-1.02h-9.8a.7.7 0 0 0-.65.44l-4.52 11.3a.7.7 0 0 0 .66.96h5.74l-4.14 10.34a.7.7 0 0 0 1.16.74l14.31-15.06c.2-.2.25-.5.14-.76Z" fill="#4888FF" fill-opacity=".5"></path><path d="M20.93 7.96a.7.7 0 0 0-.65-.43h-4.88l3.25-6.51a.7.7 0 0 0-.62-1.02h-6.03v17.98l8.8-9.26a.7.7 0 0 0 .13-.76Z" fill="#4888FF" fill-opacity=".5"></path></svg><svg viewBox="0 0 20 20" fill="none" id="logo-telegram"><g clip-path="url(#logo-telegram_0)"><path d="M19.6 1.64a1.2 1.2 0 0 0-1.19-.26l-17.58 5.8a1.2 1.2 0 0 0-.11 2.25l4.35 1.9 1.31 6.09c.06.25.19.48.46.55.27.07.47-.08.67-.24l3.23-2.41 3.77 3.08a1.2 1.2 0 0 0 1.16.21c.4-.13.69-.46.78-.86l3.52-14.94a1.2 1.2 0 0 0-.36-1.17Zm-11.8 10.78-.01.02-.73 2.54-.81-3.76 5.58-3.1-3.9 4.08a.59.59 0 0 0-.14.22Zm.23 3.46.33-1.15.31-1.1 1.13.92-1.77 1.33Zm10.8-13.34-3.52 14.94s0 .02-.02.02h-.03l-4.13-3.38-1.91-1.57 6.14-6.42a.59.59 0 0 0-.7-.92l-9.1 5.05-4.37-1.9c0-.01-.02-.01-.02-.04 0-.02.01-.02.03-.03l17.58-5.8.03.01c.02.02.02.03.01.04Z" fill="#343A3F"></path></g><defs><clipPath id="logo-telegram_0"><path fill="#fff" d="M0 0h20v20h-20z"></path></clipPath></defs></svg><svg viewBox="0 0 20 20" fill="none" id="logo-whatsapp"><g clip-path="url(#logo-whatsapp_0)"><path fill-rule="evenodd" clip-rule="evenodd" d="M16.77 2.72a9.3 9.3 0 0 0-14.62 11.21l-1.32 4.82 4.93-1.3a9.3 9.3 0 0 0 11.02-14.73Zm-6.57 14.3a7.71 7.71 0 0 1-3.93-1.08l-.28-.16-2.93.76.78-2.85-.18-.29a7.73 7.73 0 1 1 14.26-4.1 7.73 7.73 0 0 1-7.72 7.72Zm4.24-5.78a38.5 38.5 0 0 0-1.59-.76c-.21-.08-.37-.12-.52.12-.16.23-.6.75-.74.9-.13.16-.27.18-.5.07-.23-.12-.98-.37-1.87-1.16a7 7 0 0 1-1.29-1.6c-.13-.24 0-.35.1-.48.26-.31.5-.64.59-.8.07-.15.03-.28-.02-.4l-.72-1.72c-.19-.46-.38-.4-.52-.4l-.45-.01c-.15 0-.4.06-.62.29-.2.23-.8.8-.8 1.94s.82 2.24.94 2.4c.12.15 1.64 2.5 3.96 3.5.56.24 1 .39 1.33.5.55.17 1.06.14 1.46.08.45-.06 1.37-.56 1.57-1.1.2-.54.2-1 .13-1.1-.05-.1-.21-.16-.44-.27Z" fill="#343A3F"></path></g><defs><clipPath id="logo-whatsapp_0"><path fill="#fff" d="M0 0h20v20h-20z"></path></clipPath></defs></svg><svg viewBox="0 0 28 16" fill="none" id="menu"><rect x="2.75" y=".5" width="22.5" height="1.25" rx=".625" fill="#fff"></rect><rect x="2.75" y="13" width="22.5" height="1.25" rx=".625" fill="#fff"></rect><rect x="2.75" y="6.75" width="15" height="1.25" rx=".625" fill="#fff"></rect></svg><svg viewBox="0 0 24 24" fill="none" id="new"><g clip-path="url(#new_0)"><path d="m23.85 13.07-1.77-2.8a1 1 0 0 1-.13-.75l.7-3.23a1 1 0 0 0-.67-1.16l-3.15-1.01a1 1 0 0 1-.58-.5l-1.54-2.92a1 1 0 0 0-1.27-.46l-3.06 1.25a1 1 0 0 1-.76 0l-3.06-1.25a1 1 0 0 0-1.27.46l-1.54 2.93a1 1 0 0 1-.58.49l-3.15 1a1 1 0 0 0-.67 1.17l.7 3.23a1 1 0 0 1-.13.75l-1.77 2.8a1 1 0 0 0 .24 1.32l2.61 2.03c.21.16.35.4.38.66l.45 3.27a1 1 0 0 0 1.03.87l3.3-.13a1 1 0 0 1 .72.26l2.45 2.22a1 1 0 0 0 1.34 0l2.45-2.22a1 1 0 0 1 .71-.26l3.31.13a1 1 0 0 0 1.03-.87l.45-3.27a1 1 0 0 1 .38-.66l2.61-2.03a1 1 0 0 0 .24-1.32Zm-14.63 2.93-2.91-2.04 1.2 2.78-.8.34-1.84-4.26.83-.36 2.98 2.1-1.23-2.85.8-.35 1.84 4.26-.87.38Zm1.78-.77-1.84-4.26 3.16-1.37.31.72-2.3 1 .4.94 2.15-.92.3.72-2.13.92.5 1.16 2.38-1.03.31.72-3.24 1.4Zm7.2-3.1-2.22-2.83.53 3.55-.93.4-2.86-3.82.88-.38 1.9 2.65-.48-3.26 1.03-.44 2.03 2.65-.63-3.26.86-.37.8 4.7-.9.4Z" fill="#4888FF" fill-opacity=".5"></path></g><defs><clipPath id="new_0"><path fill="#fff" d="M0 0h24v24h-24z"></path></clipPath></defs></svg><svg viewBox="0 0 24 24" fill="none" id="orc"><g clip-path="url(#orc_0)" fill="#4888FF" fill-opacity=".5"><path d="M20.32 15.67a9.62 9.62 0 0 1-16.64 0 9.74 9.74 0 0 0-3.68 7.63c0 .38.32.7.7.7h22.6a.7.7 0 0 0 .7-.7 9.74 9.74 0 0 0-3.68-7.63Zm-14.92-14.12h-2.78a.7.7 0 0 0-.7.7c0 1.36.52 2.6 1.38 3.52a8.83 8.83 0 0 1 2.1-4.22Zm16.68.7a.7.7 0 0 0-.7-.7h-2.78a8.83 8.83 0 0 1 2.1 4.22 5.18 5.18 0 0 0 1.38-3.52Zm-17.53 6.52h1.3a2.11 2.11 0 0 1 4.04 0h4.22a2.11 2.11 0 0 1 4.03 0h1.31v-1.32a7.46 7.46 0 0 0-14.9 0v1.32Zm8.95-4.97h1.5a.7.7 0 0 1 0 1.4h-1.5a.7.7 0 0 1 0-1.4Zm-4.5 0h1.5a.7.7 0 0 1 0 1.4h-1.5a.7.7 0 0 1 0-1.4Z"></path><path d="M7.88 8.67a.7.7 0 0 0-.7.7v.8h-2.68a.7.7 0 0 0-.7.7 8.21 8.21 0 0 0 16.4 0 .7.7 0 0 0-.7-.7h-2.67v-.8a.7.7 0 0 0-1.4 0v.8h-6.85v-.8a.7.7 0 0 0-.7-.7Z"></path></g><defs><clipPath id="orc_0"><path fill="#fff" d="M0 0h24v24h-24z"></path></clipPath></defs></svg><svg viewBox="0 0 16 16" fill="none" id="phone"><path d="M10.34 1.35h-4.68a1.66 1.66 0 0 0-1.66 1.66v9.98c0 .92.76 1.66 1.66 1.66h4.68a1.66 1.66 0 0 0 1.66-1.66v-9.98a1.66 1.66 0 0 0-1.66-1.66Zm-2.33 12.23a.75.75 0 0 1-.76-.76c0-.42.33-.75.76-.75.42 0 .75.33.75.75 0 .43-.33.76-.75.76Zm3.23-2.31h-6.48v-7.7h6.48v7.7Z" fill="#343A3F" opacity=".5"></path></svg><svg viewBox="0 0 16 16" fill="none" id="pin"><path d="M8.05 15c.96-1.07 5.3-6.08 5.3-8.7a5.3 5.3 0 1 0-10.6 0c0 2.62 4.34 7.63 5.3 8.7Zm0-10.97a2.27 2.27 0 1 1 0 4.54 2.27 2.27 0 0 1 0-4.54Z" fill="#343A3F" opacity=".3"></path></svg><svg viewBox="0 0 24 24" fill="none" id="plus"><path d="M12 5v14m-7-7h14" stroke="#4888FF" stroke-width="1.5" stroke-linecap="round" stroke-linejoin="round"></path></svg><svg viewBox="0 0 24 24" fill="none" id="quest"><g clip-path="url(#quest_0)" fill="#4888FF" fill-opacity=".5"><path d="M13.44 20.57c.19 0 .36-.14.4-.33l.05-.2c0-.05.02-.09.03-.13l.03-.09c.23-.71.66-1.35 1.25-1.82h-2.54a8.22 8.22 0 0 0-.16 2.17c.01.12.03.25.06.37v.03h.88Zm.36-18.13.06-.27.03-.16.08-.24.05-.15.1-.23.07-.14c.03-.08.08-.15.12-.22l.08-.13.15-.21a1.92 1.92 0 0 1 .3-.36l.05-.05.3-.27v-.01h-12.14a3 3 0 1 0 0 6h12.15a3.86 3.86 0 0 1-1.4-3.56Zm-10.75-.73c-.59 0-1.1.4-1.25.97a.42.42 0 0 1-.75.15.43.43 0 0 1-.08-.37c.25-.94 1.1-1.6 2.08-1.6a.43.43 0 1 1 0 .85Zm3 0h-1.29a.43.43 0 0 1 0-.85h1.29a.43.43 0 1 1 0 .85Zm14.32 20.34c.31-.65.49-1.67-.46-2.84a3.01 3.01 0 0 0-2.3-1.21l-.28.03c-.08 0-.16 0-.24.02-.06 0-.12.03-.18.05a3 3 0 0 0-2.06 1.75l-.02.05c-.04.09-.05.18-.08.26-.02.09-.06.17-.07.26-.12.57-.62.98-1.2 1l-.06.01h-.58a4.2 4.2 0 0 0 1.7 1.86h.01l.57.3.09.02c.15.07.31.12.47.17l.17.05c.19.05.37.08.56.11l.16.02a3.66 3.66 0 0 0 3.8-1.9Z"></path><path d="M4.76 24h9.29a4.83 4.83 0 0 1-2.43-4.29 9.3 9.3 0 0 1 .05-.92c.02-.15.03-.3.06-.44l.04-.3a11.55 11.55 0 0 1 .4-1.43c-.24.22-.43.42-.57.58l-.01.01a16.53 16.53 0 0 0-.29.35l-.02.02-.07.1-.02.02a.64.64 0 0 0-.03.06h-.02v.03h-.01l-.02.03-.03.03a.5.5 0 0 1-.04.05l-.02.01-.03.02a.35.35 0 0 1-.07.04h-.02l-.02.01a.36.36 0 0 1-.1.02h-.04a.3.3 0 0 1-.12-.03h-.01a.33.33 0 0 1-.13-.08.11.11 0 0 1-.03-.04.34.34 0 0 1-.09-.14l-.01-.04-.01-.03v-.15c.2-1.9.84-3.72 1.87-5.32a13.9 13.9 0 0 1 7.42-5.86c.62-1 .96-2.14.99-3.31a3 3 0 1 0-3 3 .43.43 0 1 1 0 .86h-13.15c-.43 1.02-.94 2-1.54 2.94-.26.42-.52.85-.77 1.3a14.97 14.97 0 0 0-2.11 7.76c0 2.64 2.29 5.14 4.71 5.14Zm-1.7-12.53c.03-.1.09-.2.18-.25l.83-.56c.42-.28.96-.28 1.38 0l.38.25c.13.1.3.1.43 0l.38-.25c.42-.28.96-.28 1.38 0l.38.25c.13.1.3.1.43 0l.38-.25c.42-.28.97-.28 1.38 0l.84.56a.42.42 0 0 1 .12.59.43.43 0 0 1-.36.19.4.4 0 0 1-.24-.07l-.83-.56a.37.37 0 0 0-.43 0l-.38.26c-.42.28-.96.28-1.38 0l-.38-.26a.37.37 0 0 0-.43 0l-.38.26c-.42.28-.97.28-1.38 0l-.38-.26a.37.37 0 0 0-.43 0l-.84.56a.42.42 0 0 1-.59-.12.44.44 0 0 1-.06-.34Zm-1.1 2.75.83-.56c.41-.28.96-.28 1.38 0l.38.25c.13.1.3.1.43 0l.38-.25c.41-.28.96-.28 1.38 0l.38.25c.13.1.3.1.43 0l.38-.25c.42-.28.96-.28 1.38 0l.83.56a.43.43 0 0 1-.24.78.4.4 0 0 1-.23-.07l-.84-.56a.37.37 0 0 0-.43 0l-.38.26c-.42.28-.96.28-1.38 0l-.38-.26a.37.37 0 0 0-.43 0l-.38.26c-.42.28-.96.28-1.38 0l-.38-.26a.37.37 0 0 0-.43 0l-.83.56a.43.43 0 1 1-.48-.71Zm-.86 3.42.83-.55c.42-.28.96-.28 1.38 0l.38.25c.13.09.3.09.43 0l.38-.25c.42-.28.96-.28 1.38 0l.38.25c.13.09.3.09.43 0l.38-.25c.42-.28.96-.28 1.38 0l.83.55a.42.42 0 0 1 .16.53.43.43 0 0 1-.4.26.4.4 0 0 1-.23-.07l-.83-.56a.37.37 0 0 0-.43 0l-.38.26c-.42.27-.97.27-1.38 0l-.39-.26a.37.37 0 0 0-.42 0l-.39.26c-.41.27-.96.27-1.38 0l-.38-.26a.37.37 0 0 0-.43 0l-.83.56a.42.42 0 0 1-.6-.12.44.44 0 0 1-.07-.24c0-.14.08-.28.2-.36Z"></path><path d="M11.49 15.28c1.55-2.37 4.9-6.19 11.58-8.8-7.2.6-10.34 5.73-11.58 8.8Z"></path><path d="M23.95 7.08c-7.45 2.75-10.78 7-12.08 9.21 1.61-1.5 3.4-2.8 5.32-3.86a27.5 27.5 0 0 0 6.76-5.35Z"></path></g><defs><clipPath id="quest_0"><path fill="#fff" d="M0 0h24v24h-24z"></path></clipPath></defs></svg><svg viewBox="0 0 24 24" fill="none" id="reshot"><g clip-path="url(#reshot_0)" fill-opacity=".5"><path d="M17.5 15h-13c-3.5 0-4-4-4-4h17v4Zm6-3h-3.5v2h3.5v-2Z" fill="#4888FF"></path><path d="M18.5 14h-1v-2h2.5v2h-1.5Zm-4.5-7.5v13c0 3.5-4 4-4 4v-17h4Z" fill="#fff"></path><path d="M13 .5h-2v3.5h2v-3.5Z" fill="#4888FF"></path><path d="M13 5.5v1h-2v-2.5h2v1.5Z" fill="#fff"></path><path d="M16 8v-1a1 1 0 0 0-1-1h-1.5v-1.5h1v-1h-1v-3a.5.5 0 0 0-.5-.5h-2a.5.5 0 0 0-.5.5v3h-1v1h1v1.5h-1.5a1 1 0 0 0-1 1v1h1v-1h.5v16.5a.5.5 0 0 0 .56.5c1.54-.2 4.44-1.38 4.44-4.5v-12.5h.5v1h1Zm-4.5-7h1v2.5h-1v-2.5Zm0 3.5h1v1.5h-1v-1.5Zm2 15c0 2.3-2 3.12-3 3.39v-15.89h3v12.5Z" fill="#4888FF"></path><path d="M12.5 12.5h-1v8h1v-8Zm0-2h-1v1h1v-1Zm0-2h-1v1h1v-1Zm-12.38 2.17a.5.5 0 0 0-.12.4c.2 1.53 1.38 4.43 4.5 4.43h4v-1h-4c-2.3 0-3.12-2-3.39-3h7.39v-1h-8a.5.5 0 0 0-.38.17Zm16.88-1.67h-1v1h1v.5h-1.5v1h1.5v3h-1.5v1h1.5v.5h-1v1h1a1 1 0 0 0 1-1v-6a1 1 0 0 0-1-1Z" fill="#4888FF"></path><path d="M8.5 12.5h-5v1h5v-1Zm15-1h-3v-1h-1v1h-1v1h1v1h-1v1h1v1h1v-1h3a.5.5 0 0 0 .5-.5v-2a.5.5 0 0 0-.5-.5Zm-.5 2h-2.5v-1h2.5v1Z" fill="#4888FF"></path></g><defs><clipPath id="reshot_0"><path fill="#fff" d="M0 0h24v24h-24z"></path></clipPath></defs></svg><svg viewBox="0 0 24 24" fill="none" id="search"><path d="m21.77 20.59-4.97-4.97a8.34 8.34 0 1 0-1.18 1.18l4.97 4.97a.83.83 0 0 0 1.18-1.18Zm-11.42-3.58a6.66 6.66 0 1 1 0-13.32 6.66 6.66 0 0 1 0 13.32Z" fill="#fff"></path></svg><svg viewBox="0 0 24 24" fill="none" id="speaker"><g clip-path="url(#speaker_0)"><path fill-rule="evenodd" clip-rule="evenodd" d="M20.25 4.5a.75.75 0 1 1 0-1.5.75.75 0 0 1 0 1.5Zm-8.25 16.5a9 9 0 1 1 0-18 9 9 0 0 1 0 18Zm8.25 0a.75.75 0 1 1 0-1.5.75.75 0 0 1 0 1.5Zm-16.5 0a.75.75 0 1 1 0-1.5.75.75 0 0 1 0 1.5Zm0-18a.75.75 0 1 1 0 1.5.75.75 0 0 1 0-1.5Zm17.25-3h-18a3 3 0 0 0-3 3v18a3 3 0 0 0 3 3h18a3 3 0 0 0 3-3v-18a3 3 0 0 0-3-3Zm-9 16.5a4.5 4.5 0 1 1 0-9 4.5 4.5 0 0 1 0 9Zm0-12a7.5 7.5 0 1 0 0 15 7.5 7.5 0 0 0 0-15Zm0 4.5a3 3 0 1 0 0 6 3 3 0 0 0 0-6Z" fill="#4888FF" fill-opacity=".5"></path></g><defs><clipPath id="speaker_0"><path fill="#fff" d="M0 0h24v24h-24z"></path></clipPath></defs></svg><svg viewBox="0 0 24 24" fill="none" id="tv"><path d="M18.05 20.99h-2.62v-1.26h-6.86v1.26h-2.62a.71.71 0 1 0 0 1.43h12.1a.71.71 0 1 0 0-1.43Zm-18.05-5.34v1.93c0 .4.32.72.71.72h22.58c.39 0 .71-.32.71-.72v-1.93h-24Zm23.29-14.07h-22.58a.71.71 0 0 0-.71.72v11.93h24v-11.93c0-.4-.32-.72-.71-.72Z" fill="#4888FF" fill-opacity=".5"></path></svg></svg>