<svg viewBox="0 0 56 56" fill="none" xmlns="http://www.w3.org/2000/svg"><circle cx="28" cy="28" r="28" fill="#4888FF"/><circle cx="27.5" cy="28.5" r="24.5" fill="#4888FF"/><path d="M28.35 41.5a13.07 13.07 0 0 0 9.3-3.85 1.2 1.2 0 0 0 0-1.69l-7.6-7.61 7.6-7.61a1.2 1.2 0 0 0 0-1.7 13.15 13.15 0 1 0-9.3 22.46Zm0-23.91c2.44-.01 4.81.82 6.72 2.35l-7.57 7.56a1.2 1.2 0 0 0 0 1.7l7.57 7.56a10.76 10.76 0 1 1-6.72-19.17Zm13.15 10.76a2.4 2.4 0 1 1-4.78 0 2.4 2.4 0 0 1 4.78 0Zm-17.93-5.98a2.4 2.4 0 1 1 4.78 0 2.4 2.4 0 0 1-4.78 0Z" fill="#fff"/></svg>