<svg viewBox="0 0 20 20" fill="none" xmlns="http://www.w3.org/2000/svg"><g clip-path="url(#a)" fill="#343A3F"><path d="M.59 8.5h-.59v5.14a4.5 4.5 0 0 1 2.1.67v-5.82h-1.51Zm15.71-6.38h-12.6a3.7 3.7 0 0 0-3.7 3.7v1.5h7.63v-1.08h4.74v1.08h7.63v-1.5a3.7 3.7 0 0 0-3.7-3.7Zm-3.93 6.38v.64c0 .22-.03.42-.08.62h4.43v-1.27h-4.35Zm7.04 0h-1.52v5.81a4.5 4.5 0 0 1 2.11-.67v-5.15h-.59Zm-7.85 2.43a2.36 2.36 0 0 1-3.12 0h-5.16v4.43c.55.7.9 1.57.96 2.52h11.52c.06-.95.4-1.81.96-2.52v-4.43h-5.16Zm5.37 6.95h3.07v-3.07a3.37 3.37 0 0 0-3.07 3.07Zm-16.93-3.07v3.07h3.07a3.37 3.37 0 0 0-3.07-3.07Zm7.63-5.67v-.65h-4.35v1.27h4.43a2.5 2.5 0 0 1-.08-.62Zm1.17-1.74v1.74a1.2 1.2 0 0 0 2.4 0v-1.73h-2.4Z"/></g><defs><clipPath id="a"><path fill="#fff" d="M0 0h20v20h-20z"/></clipPath></defs></svg>