<svg viewBox="0 0 24 24" fill="none" xmlns="http://www.w3.org/2000/svg"><g clip-path="url(#a)" fill="#4888FF" fill-opacity=".5"><path d="M19.56 5.38c1.77 2.23 1.54 5.38 1.54 7.47h2.57c0-2.18.05-2.73-.16-3.65-.46-2.06-1.86-3.55-3.95-3.82Zm-16.32 7.47c0-2.21-.03-2.85.13-3.92a7.56 7.56 0 0 1 1.4-3.55c-1.87.22-3.44 1.57-3.94 3.82-.21.92-.17 1.47-.17 3.65h2.58Zm1.56-3.7c-.15.95-.12 1.5-.12 3.7h1.94v-.75a3.01 3.01 0 0 1 3.01-3.01h5.07a3.01 3.01 0 0 1 3.01 3.01v.75h1.94c0-2.2.03-2.75-.11-3.7-.25-1.7-1.14-3.8-2.8-3.8-9.86 0-9.26-.02-9.52.03-1.19.26-2.12 1.7-2.43 3.77Zm12.74 6.61h4.19c.4 0 .72.32.72.72v5.21c0 .4-.33.73-.72.73h-19.22a.72.72 0 0 1-.72-.73v-5.21c0-.4.32-.72.72-.72h4.29c-.2-.57-.18-.96-.18-1.47h-5.96v8.9c0 .4.32.73.72.73h21.57c.4 0 .72-.32.72-.72v-8.9h-5.96c0 .5.03.89-.17 1.46Z"/><path d="M3.23 17.2v3.77h17.77v-3.77h-4.5c-.37.3-.83.51-1.32.6 0 1.5-.92 2.24-1.96 2.24h-2.2c-.97 0-1.95-.68-1.95-2.25-.46-.1-.88-.3-1.24-.6h-4.6Z"/><path d="M14.7 10.53h-5.07c-.86 0-1.56.7-1.56 1.57v2.63c0 .89.7 1.7 1.72 1.7.4 0 .72.31.72.71v.94c0 .29.23.52.52.52h2.19c.28 0 .51-.23.51-.52v-.94c0-.3.19-.55.45-.66.32-.13 1.1.1 1.74-.72.4-.52.35-.98.35-1.47v-2.19c0-.86-.7-1.57-1.57-1.57Zm-3.75 2.79a.72.72 0 0 1-1.44 0v-.85a.72.72 0 0 1 1.44 0v.85Zm1.94 2.24a.72.72 0 0 1-1.44 0c0-.86-.05-1.02.16-1.27a.72.72 0 0 1 1.28.46v.81Zm1.8-1.99a.72.72 0 0 1-1.4-.25v-.85a.72.72 0 0 1 1.45 0c0 .92.01.95-.05 1.1Zm8.59-11.21h-.44v-.43a.72.72 0 1 0-1.44 0v.43h-.44a.72.72 0 0 0 0 1.45h.44v.44a.72.72 0 0 0 1.44 0v-.44h.44a.72.72 0 0 0 0-1.45Zm-6.68.29h.44v.44a.72.72 0 1 0 1.44 0v-.44h.44a.72.72 0 0 0 0-1.44h-.44v-.44a.72.72 0 0 0-1.44 0v.44h-.44a.72.72 0 1 0 0 1.44Zm-11.52 0h.44v.44a.72.72 0 0 0 1.44 0v-.44h.44a.72.72 0 0 0 0-1.44h-.44v-.44a.72.72 0 0 0-1.44 0v.44h-.44a.72.72 0 0 0 0 1.44Zm-3.92 1.15v.45a.72.72 0 0 0 1.44 0v-.44h.44a.72.72 0 0 0 0-1.45h-.44v-.43a.72.72 0 0 0-1.44 0v.43h-.44a.72.72 0 1 0 0 1.45h.44Z"/></g><defs><clipPath id="a"><path fill="#fff" d="M0 0h24v24h-24z"/></clipPath></defs></svg>