<svg viewBox="0 0 24 24" fill="none" xmlns="http://www.w3.org/2000/svg"><g clip-path="url(#a)"><path fill-rule="evenodd" clip-rule="evenodd" d="m14.83 0-13.9 2.32c-.2.04-.35.2-.35.41v18.54c0 .2.15.37.35.4l13.9 2.32a.4.4 0 0 0 .13 0l8.1-1.15c.2-.03.36-.2.36-.41v-20.86a.4.4 0 0 0-.35-.4l-8.11-1.17h-.13Zm.48 17.98v5.13l1.49-.21v-6.25l-1.49 1.33Zm-13.9-2.02 13.07 2.18v4.96l-13.07-2.18v-4.96Zm19.11-14.32v11.52a.4.4 0 0 1-.13.3l-2.76 2.46v6.86l4.96-.71v-20.14l-2.07-.3Zm-18.15 13.65 12.11 2.01v-2.36l-9.36-.96-2.75 1.3Zm17.33-13.77-4.39-.63v15.98l4.39-3.9v-11.45Zm-18.3 3.22v10.08l3.23-1.52v-9.1l-3.22.54Zm4.06-.68v9.13l9.02.92v-11.55l-9.02 1.5Zm10.76-1.33v1.16a.41.41 0 0 0 .83 0v-1.16a.41.41 0 0 0-.83 0Zm-1.74-1.01-13.07 2.18v-.82l13.07-2.18v.82Z" fill="#4888FF" fill-opacity=".5"/></g><defs><clipPath id="a"><path fill="#fff" d="M0 0h24v24h-24z"/></clipPath></defs></svg>