<svg viewBox="0 0 16 16" fill="none" xmlns="http://www.w3.org/2000/svg"><path d="M8 1a7 7 0 1 0 0 14 7 7 0 0 0 0-14Zm-.8 1.65c-.78.5-1.32.88-1.44 1.31-.21.75 1.12 1.3 1.49 1.62.67.6.36 2.07-.34 2.72-.7.66-.96 1.32-.88 1.82.1.66.84 1.7 1.23 2.34.4.64-.02.79-.58.46-.4-.24-2.3-.7-2.88-1.12-.57-.42-.75-1.85-.57-2.45.18-.6.4-2.18-.51-2.7a1.7 1.7 0 0 1-.54-.48 6.11 6.11 0 0 1 6.07-4.27c-.4.3-.8.57-1.06.75Zm5.98 6.49a9.57 9.57 0 0 1-1.86-.3c-.71-.4-.48-.93-.18-1.7.3-.79-1.2-1.47-1.2-2.4 0-.91.6-1.52 1.29-1.92a6.1 6.1 0 0 1 2.36 7.63c-.03-.66.03-1.27-.41-1.31Z" fill="#343A3F" fill-opacity=".5"/></svg>