<svg viewBox="0 0 24 24" fill="none" xmlns="http://www.w3.org/2000/svg"><path d="M15.48 18.61c0-1.28-.81-2.03-2.36-3.34-.35-.3-.73-.62-1.12-.98-.44.41-.87.77-1.25 1.1-1.55 1.31-2.23 1.95-2.23 3.22a3.48 3.48 0 1 0 6.96 0Z" fill="#4888FF" fill-opacity=".5"/><path d="M16.4 4.04a59.73 59.73 0 0 1-3.69-3.33l-.71-.71-.7.71c-2.25 2.26-3.32 5.74-3.78 7.82a6.04 6.04 0 0 1-.78-1.78l-.43-1.64-1.23 1.16c-2.16 2.02-3.6 4.04-3.6 7.26a10.42 10.42 0 0 0 9.52 10.47 5.5 5.5 0 0 1-4.48-5.39c0-2.25 1.35-3.4 2.92-4.74.56-.48 1.2-1.02 1.85-1.67l.71-.7.7.7c.58.58 1.16 1.07 1.72 1.54 1.57 1.34 3.06 2.6 3.06 4.87a5.49 5.49 0 0 1-4.45 5.38 10.51 10.51 0 0 0 9.49-10.46c0-4.3-2.83-6.71-6.11-9.5Z" fill="#4888FF" fill-opacity=".5"/></svg>