<svg viewBox="0 0 24 24" fill="none" xmlns="http://www.w3.org/2000/svg"><path d="M8.74 9.18a3.6 3.6 0 0 0 4.74 1.77c2.3-.93 2.82-4.3.96-5.88-2.84-2.65-7.31.57-5.7 4.11Zm7.16 3.57a4.68 4.68 0 0 0-2.48-.7c-.1-.01-3.1-.02-3.1 0a4.72 4.72 0 0 0-4.46 4.71c.04.42-.07 1.68.06 2.07a2.55 2.55 0 0 0 2.48 1.96h7.2a2.54 2.54 0 0 0 2.54-2.54v-1.49a4.71 4.71 0 0 0-2.23-4Z" fill="#4888FF" fill-opacity=".5"/><path d="M3.18 18.83h1.64c-.1-.38-.03-1.77-.05-2.18a5.83 5.83 0 0 1 4.15-5.46c-.22-.17-.4-.4-.59-.6a3.62 3.62 0 0 0-.48-.03h-2.65a4.45 4.45 0 0 0-4.45 4.45v1.39a2.43 2.43 0 0 0 2.43 2.43Zm3.35-8.81c.45 0 .88-.09 1.28-.26a4.66 4.66 0 0 1 1.1-5.57c-2.03-2.1-5.86-.55-5.8 2.43 0 1.87 1.54 3.4 3.42 3.4Zm12.27.54h-2.65c-.52-.1-.71.35-1.07.63a5.79 5.79 0 0 1 4.14 5.46c0 .42.05 1.79-.04 2.18h1.64a2.43 2.43 0 0 0 2.43-2.43v-1.39a4.46 4.46 0 0 0-4.45-4.45Zm-2.42-4.49a4.62 4.62 0 0 1-.2 3.7c.41.16.85.25 1.3.25 4.5-.15 4.5-6.67 0-6.8-.9 0-1.76.34-2.4.97a4.6 4.6 0 0 1 1.3 1.88Z" fill="#4888FF" fill-opacity=".5"/></svg>