<svg viewBox="0 0 20 20" fill="none" xmlns="http://www.w3.org/2000/svg"><g clip-path="url(#a)" fill="#343A3F"><path d="M7.8 9.31h-1.38a.35.35 0 0 0-.34.34v.35h2.07v-.35a.35.35 0 0 0-.35-.34Zm3.8-3.11h-.7v2.42c0 1.09-.46 2.07-1.2 2.76h1.9v-5.17Zm-6.36 9.11 1.25-.83-1.5-1-.25.07.5 1.76Zm5.28-3.24h-1v.77l.54.15.46-.92Z"/><path d="M10.22 6.2h-6.21v2.42a3.1 3.1 0 0 0 6.2 0v-2.41Zm-5.18 1.04a.35.35 0 1 1 .7 0 .35.35 0 0 1-.7 0Zm3.8 3.45h-3.45v-1.04c0-.57.46-1.03 1.03-1.03h1.38c.57 0 1.04.46 1.04 1.04v1.03Zm0-3.1a.35.35 0 1 1 0-.7.35.35 0 0 1 0 .7Zm4.1-7.25h-.31c-.83 0-1.53.6-1.69 1.38h.31c.83 0 1.53-.59 1.69-1.38Zm-.66 3.46h-.32l-10.02 1v.72h10.34v-1.73Zm-3.1-1.04c0-.57.47-1.04 1.04-1.04h.02v-.01a3.45 3.45 0 0 0-6.18.46 8.7 8.7 0 0 1-.99 1.82l6.3-.63a1.04 1.04 0 0 1-.19-.6Zm1.38 0a.34.34 0 1 1-.69 0 .34.34 0 0 1 .7 0Zm-2.83 11.72 1.25.83.5-1.76-.24-.07-1.5 1Zm3.87-2.41h-.3l-.57 1.12.54.15.08-.3 2.04.5-.12.5c.3.19.54.44.72.73l1-1.97-2.73-1.24a.69.69 0 0 1-.66.5Zm1.48 2.68a12 12 0 0 1-1.48 3.32v1.93h2.06v-3.96c0-.5-.21-.97-.58-1.29Zm-2.18 5.25v-.98c-.26.34-.55.67-.85.98h.86Z"/><path d="m12.56 14.04-.72-.18-.04.15a12.03 12.03 0 0 1-3.57 5.79l-.22.2h1.03a11.3 11.3 0 0 0 3.45-5.7l.07-.26Zm-10.78.41c-.73.23-1.22.89-1.22 1.65v3.9h2.07v-2.63c0-1.03-.17-2.05-.5-3.02l-.35.1Z"/><path d="m11.08 14-.93-.26-.77 2.67-1.92-1.28v4.44l.31-.28a11.33 11.33 0 0 0 3.3-5.29Zm-7-.24-1.3.39a9.8 9.8 0 0 1 .54 3.22v2.63h3.45v-4.87l-1.93 1.28-.76-2.65Zm-.76-5.14v-2.41h-.7v5.17h1.9a3.78 3.78 0 0 1-1.2-2.76Zm5.52 3.38a3.76 3.76 0 0 1-3.45 0v.92l1.72 1.15 1.73-1.15v-.93Zm8.96-4.82-.73-1.48-1.26 2.17.38 1.42-1.08 1.86-2.11-.97 1.24-2.15 1.4-.38 1.26-2.17-1.65.1-.73-1.48-1.26 2.17.38 1.41-1.27 2.2-.09-.03v.96l3.3 1.5.38-.77-.22-.1 1.05-1.8 1.41-.39 1.26-2.17-1.66.1Z"/></g><defs><clipPath id="a"><path fill="#fff" d="M0 0h20v20h-20z"/></clipPath></defs></svg>