<svg viewBox="0 0 20 20" fill="none" xmlns="http://www.w3.org/2000/svg"><g clip-path="url(#a)"><path fill-rule="evenodd" clip-rule="evenodd" d="M16.77 2.72a9.3 9.3 0 0 0-14.62 11.21l-1.32 4.82 4.93-1.3a9.3 9.3 0 0 0 11.02-14.73Zm-6.57 14.3a7.71 7.71 0 0 1-3.93-1.08l-.28-.16-2.93.76.78-2.85-.18-.29a7.73 7.73 0 1 1 14.26-4.1 7.73 7.73 0 0 1-7.72 7.72Zm4.24-5.78a38.5 38.5 0 0 0-1.59-.76c-.21-.08-.37-.12-.52.12-.16.23-.6.75-.74.9-.13.16-.27.18-.5.07-.23-.12-.98-.37-1.87-1.16a7 7 0 0 1-1.29-1.6c-.13-.24 0-.35.1-.48.26-.31.5-.64.59-.8.07-.15.03-.28-.02-.4l-.72-1.72c-.19-.46-.38-.4-.52-.4l-.45-.01c-.15 0-.4.06-.62.29-.2.23-.8.8-.8 1.94s.82 2.24.94 2.4c.12.15 1.64 2.5 3.96 3.5.56.24 1 .39 1.33.5.55.17 1.06.14 1.46.08.45-.06 1.37-.56 1.57-1.1.2-.54.2-1 .13-1.1-.05-.1-.21-.16-.44-.27Z" fill="#343A3F"/></g><defs><clipPath id="a"><path fill="#fff" d="M0 0h20v20h-20z"/></clipPath></defs></svg>