<svg viewBox="0 0 20 20" fill="none" xmlns="http://www.w3.org/2000/svg"><g clip-path="url(#a)"><path d="M19.6 1.64a1.2 1.2 0 0 0-1.19-.26l-17.58 5.8a1.2 1.2 0 0 0-.11 2.25l4.35 1.9 1.31 6.09c.06.25.19.48.46.55.27.07.47-.08.67-.24l3.23-2.41 3.77 3.08a1.2 1.2 0 0 0 1.16.21c.4-.13.69-.46.78-.86l3.52-14.94a1.2 1.2 0 0 0-.36-1.17Zm-11.8 10.78-.01.02-.73 2.54-.81-3.76 5.58-3.1-3.9 4.08a.59.59 0 0 0-.14.22Zm.23 3.46.33-1.15.31-1.1 1.13.92-1.77 1.33Zm10.8-13.34-3.52 14.94s0 .02-.02.02h-.03l-4.13-3.38-1.91-1.57 6.14-6.42a.59.59 0 0 0-.7-.92l-9.1 5.05-4.37-1.9c0-.01-.02-.01-.02-.04 0-.02.01-.02.03-.03l17.58-5.8.03.01c.02.02.02.03.01.04Z" fill="#343A3F"/></g><defs><clipPath id="a"><path fill="#fff" d="M0 0h20v20h-20z"/></clipPath></defs></svg>