<svg viewBox="0 0 24 24" fill="none" xmlns="http://www.w3.org/2000/svg"><g clip-path="url(#a)"><path d="m23.85 13.07-1.77-2.8a1 1 0 0 1-.13-.75l.7-3.23a1 1 0 0 0-.67-1.16l-3.15-1.01a1 1 0 0 1-.58-.5l-1.54-2.92a1 1 0 0 0-1.27-.46l-3.06 1.25a1 1 0 0 1-.76 0l-3.06-1.25a1 1 0 0 0-1.27.46l-1.54 2.93a1 1 0 0 1-.58.49l-3.15 1a1 1 0 0 0-.67 1.17l.7 3.23a1 1 0 0 1-.13.75l-1.77 2.8a1 1 0 0 0 .24 1.32l2.61 2.03c.21.16.35.4.38.66l.45 3.27a1 1 0 0 0 1.03.87l3.3-.13a1 1 0 0 1 .72.26l2.45 2.22a1 1 0 0 0 1.34 0l2.45-2.22a1 1 0 0 1 .71-.26l3.31.13a1 1 0 0 0 1.03-.87l.45-3.27a1 1 0 0 1 .38-.66l2.61-2.03a1 1 0 0 0 .24-1.32Zm-14.63 2.93-2.91-2.04 1.2 2.78-.8.34-1.84-4.26.83-.36 2.98 2.1-1.23-2.85.8-.35 1.84 4.26-.87.38Zm1.78-.77-1.84-4.26 3.16-1.37.31.72-2.3 1 .4.94 2.15-.92.3.72-2.13.92.5 1.16 2.38-1.03.31.72-3.24 1.4Zm7.2-3.1-2.22-2.83.53 3.55-.93.4-2.86-3.82.88-.38 1.9 2.65-.48-3.26 1.03-.44 2.03 2.65-.63-3.26.86-.37.8 4.7-.9.4Z" fill="#4888FF" fill-opacity=".5"/></g><defs><clipPath id="a"><path fill="#fff" d="M0 0h24v24h-24z"/></clipPath></defs></svg>