<svg viewBox="0 0 24 24" fill="none" xmlns="http://www.w3.org/2000/svg"><g clip-path="url(#a)" fill="#4888FF" fill-opacity=".5"><path d="M20.32 15.67a9.62 9.62 0 0 1-16.64 0 9.74 9.74 0 0 0-3.68 7.63c0 .38.32.7.7.7h22.6a.7.7 0 0 0 .7-.7 9.74 9.74 0 0 0-3.68-7.63Zm-14.92-14.12h-2.78a.7.7 0 0 0-.7.7c0 1.36.52 2.6 1.38 3.52a8.83 8.83 0 0 1 2.1-4.22Zm16.68.7a.7.7 0 0 0-.7-.7h-2.78a8.83 8.83 0 0 1 2.1 4.22 5.18 5.18 0 0 0 1.38-3.52Zm-17.53 6.52h1.3a2.11 2.11 0 0 1 4.04 0h4.22a2.11 2.11 0 0 1 4.03 0h1.31v-1.32a7.46 7.46 0 0 0-14.9 0v1.32Zm8.95-4.97h1.5a.7.7 0 0 1 0 1.4h-1.5a.7.7 0 0 1 0-1.4Zm-4.5 0h1.5a.7.7 0 0 1 0 1.4h-1.5a.7.7 0 0 1 0-1.4Z"/><path d="M7.88 8.67a.7.7 0 0 0-.7.7v.8h-2.68a.7.7 0 0 0-.7.7 8.21 8.21 0 0 0 16.4 0 .7.7 0 0 0-.7-.7h-2.67v-.8a.7.7 0 0 0-1.4 0v.8h-6.85v-.8a.7.7 0 0 0-.7-.7Z"/></g><defs><clipPath id="a"><path fill="#fff" d="M0 0h24v24h-24z"/></clipPath></defs></svg>