<svg viewBox="0 0 24 24" fill="none" xmlns="http://www.w3.org/2000/svg"><g clip-path="url(#a)" fill="#4888FF" fill-opacity=".5"><path d="M13.44 20.57c.19 0 .36-.14.4-.33l.05-.2c0-.05.02-.09.03-.13l.03-.09c.23-.71.66-1.35 1.25-1.82h-2.54a8.22 8.22 0 0 0-.16 2.17c.01.12.03.25.06.37v.03h.88Zm.36-18.13.06-.27.03-.16.08-.24.05-.15.1-.23.07-.14c.03-.08.08-.15.12-.22l.08-.13.15-.21a1.92 1.92 0 0 1 .3-.36l.05-.05.3-.27v-.01h-12.14a3 3 0 1 0 0 6h12.15a3.86 3.86 0 0 1-1.4-3.56Zm-10.75-.73c-.59 0-1.1.4-1.25.97a.42.42 0 0 1-.75.15.43.43 0 0 1-.08-.37c.25-.94 1.1-1.6 2.08-1.6a.43.43 0 1 1 0 .85Zm3 0h-1.29a.43.43 0 0 1 0-.85h1.29a.43.43 0 1 1 0 .85Zm14.32 20.34c.31-.65.49-1.67-.46-2.84a3.01 3.01 0 0 0-2.3-1.21l-.28.03c-.08 0-.16 0-.24.02-.06 0-.12.03-.18.05a3 3 0 0 0-2.06 1.75l-.02.05c-.04.09-.05.18-.08.26-.02.09-.06.17-.07.26-.12.57-.62.98-1.2 1l-.06.01h-.58a4.2 4.2 0 0 0 1.7 1.86h.01l.57.3.09.02c.15.07.31.12.47.17l.17.05c.19.05.37.08.56.11l.16.02a3.66 3.66 0 0 0 3.8-1.9Z"/><path d="M4.76 24h9.29a4.83 4.83 0 0 1-2.43-4.29 9.3 9.3 0 0 1 .05-.92c.02-.15.03-.3.06-.44l.04-.3a11.55 11.55 0 0 1 .4-1.43c-.24.22-.43.42-.57.58l-.01.01a16.53 16.53 0 0 0-.29.35l-.02.02-.07.1-.02.02a.64.64 0 0 0-.03.06h-.02v.03h-.01l-.02.03-.03.03a.5.5 0 0 1-.04.05l-.02.01-.03.02a.35.35 0 0 1-.07.04h-.02l-.02.01a.36.36 0 0 1-.1.02h-.04a.3.3 0 0 1-.12-.03h-.01a.33.33 0 0 1-.13-.08.11.11 0 0 1-.03-.04.34.34 0 0 1-.09-.14l-.01-.04-.01-.03v-.15c.2-1.9.84-3.72 1.87-5.32a13.9 13.9 0 0 1 7.42-5.86c.62-1 .96-2.14.99-3.31a3 3 0 1 0-3 3 .43.43 0 1 1 0 .86h-13.15c-.43 1.02-.94 2-1.54 2.94-.26.42-.52.85-.77 1.3a14.97 14.97 0 0 0-2.11 7.76c0 2.64 2.29 5.14 4.71 5.14Zm-1.7-12.53c.03-.1.09-.2.18-.25l.83-.56c.42-.28.96-.28 1.38 0l.38.25c.13.1.3.1.43 0l.38-.25c.42-.28.96-.28 1.38 0l.38.25c.13.1.3.1.43 0l.38-.25c.42-.28.97-.28 1.38 0l.84.56a.42.42 0 0 1 .12.59.43.43 0 0 1-.36.19.4.4 0 0 1-.24-.07l-.83-.56a.37.37 0 0 0-.43 0l-.38.26c-.42.28-.96.28-1.38 0l-.38-.26a.37.37 0 0 0-.43 0l-.38.26c-.42.28-.97.28-1.38 0l-.38-.26a.37.37 0 0 0-.43 0l-.84.56a.42.42 0 0 1-.59-.12.44.44 0 0 1-.06-.34Zm-1.1 2.75.83-.56c.41-.28.96-.28 1.38 0l.38.25c.13.1.3.1.43 0l.38-.25c.41-.28.96-.28 1.38 0l.38.25c.13.1.3.1.43 0l.38-.25c.42-.28.96-.28 1.38 0l.83.56a.43.43 0 0 1-.24.78.4.4 0 0 1-.23-.07l-.84-.56a.37.37 0 0 0-.43 0l-.38.26c-.42.28-.96.28-1.38 0l-.38-.26a.37.37 0 0 0-.43 0l-.38.26c-.42.28-.96.28-1.38 0l-.38-.26a.37.37 0 0 0-.43 0l-.83.56a.43.43 0 1 1-.48-.71Zm-.86 3.42.83-.55c.42-.28.96-.28 1.38 0l.38.25c.13.09.3.09.43 0l.38-.25c.42-.28.96-.28 1.38 0l.38.25c.13.09.3.09.43 0l.38-.25c.42-.28.96-.28 1.38 0l.83.55a.42.42 0 0 1 .16.53.43.43 0 0 1-.4.26.4.4 0 0 1-.23-.07l-.83-.56a.37.37 0 0 0-.43 0l-.38.26c-.42.27-.97.27-1.38 0l-.39-.26a.37.37 0 0 0-.42 0l-.39.26c-.41.27-.96.27-1.38 0l-.38-.26a.37.37 0 0 0-.43 0l-.83.56a.42.42 0 0 1-.6-.12.44.44 0 0 1-.07-.24c0-.14.08-.28.2-.36Z"/><path d="M11.49 15.28c1.55-2.37 4.9-6.19 11.58-8.8-7.2.6-10.34 5.73-11.58 8.8Z"/><path d="M23.95 7.08c-7.45 2.75-10.78 7-12.08 9.21 1.61-1.5 3.4-2.8 5.32-3.86a27.5 27.5 0 0 0 6.76-5.35Z"/></g><defs><clipPath id="a"><path fill="#fff" d="M0 0h24v24h-24z"/></clipPath></defs></svg>