<svg viewBox="0 0 24 24" fill="none" xmlns="http://www.w3.org/2000/svg"><g clip-path="url(#a)" fill-opacity=".5"><path d="M17.5 15h-13c-3.5 0-4-4-4-4h17v4Zm6-3h-3.5v2h3.5v-2Z" fill="#4888FF"/><path d="M18.5 14h-1v-2h2.5v2h-1.5Zm-4.5-7.5v13c0 3.5-4 4-4 4v-17h4Z" fill="#fff"/><path d="M13 .5h-2v3.5h2v-3.5Z" fill="#4888FF"/><path d="M13 5.5v1h-2v-2.5h2v1.5Z" fill="#fff"/><path d="M16 8v-1a1 1 0 0 0-1-1h-1.5v-1.5h1v-1h-1v-3a.5.5 0 0 0-.5-.5h-2a.5.5 0 0 0-.5.5v3h-1v1h1v1.5h-1.5a1 1 0 0 0-1 1v1h1v-1h.5v16.5a.5.5 0 0 0 .56.5c1.54-.2 4.44-1.38 4.44-4.5v-12.5h.5v1h1Zm-4.5-7h1v2.5h-1v-2.5Zm0 3.5h1v1.5h-1v-1.5Zm2 15c0 2.3-2 3.12-3 3.39v-15.89h3v12.5Z" fill="#4888FF"/><path d="M12.5 12.5h-1v8h1v-8Zm0-2h-1v1h1v-1Zm0-2h-1v1h1v-1Zm-12.38 2.17a.5.5 0 0 0-.12.4c.2 1.53 1.38 4.43 4.5 4.43h4v-1h-4c-2.3 0-3.12-2-3.39-3h7.39v-1h-8a.5.5 0 0 0-.38.17Zm16.88-1.67h-1v1h1v.5h-1.5v1h1.5v3h-1.5v1h1.5v.5h-1v1h1a1 1 0 0 0 1-1v-6a1 1 0 0 0-1-1Z" fill="#4888FF"/><path d="M8.5 12.5h-5v1h5v-1Zm15-1h-3v-1h-1v1h-1v1h1v1h-1v1h1v1h1v-1h3a.5.5 0 0 0 .5-.5v-2a.5.5 0 0 0-.5-.5Zm-.5 2h-2.5v-1h2.5v1Z" fill="#4888FF"/></g><defs><clipPath id="a"><path fill="#fff" d="M0 0h24v24h-24z"/></clipPath></defs></svg>