<svg viewBox="0 0 24 24" fill="none" xmlns="http://www.w3.org/2000/svg"><g clip-path="url(#a)"><path fill-rule="evenodd" clip-rule="evenodd" d="M20.25 4.5a.75.75 0 1 1 0-1.5.75.75 0 0 1 0 1.5Zm-8.25 16.5a9 9 0 1 1 0-18 9 9 0 0 1 0 18Zm8.25 0a.75.75 0 1 1 0-1.5.75.75 0 0 1 0 1.5Zm-16.5 0a.75.75 0 1 1 0-1.5.75.75 0 0 1 0 1.5Zm0-18a.75.75 0 1 1 0 1.5.75.75 0 0 1 0-1.5Zm17.25-3h-18a3 3 0 0 0-3 3v18a3 3 0 0 0 3 3h18a3 3 0 0 0 3-3v-18a3 3 0 0 0-3-3Zm-9 16.5a4.5 4.5 0 1 1 0-9 4.5 4.5 0 0 1 0 9Zm0-12a7.5 7.5 0 1 0 0 15 7.5 7.5 0 0 0 0-15Zm0 4.5a3 3 0 1 0 0 6 3 3 0 0 0 0-6Z" fill="#4888FF" fill-opacity=".5"/></g><defs><clipPath id="a"><path fill="#fff" d="M0 0h24v24h-24z"/></clipPath></defs></svg>